# xmcd
#
# Track frame offsets: 
#        150
#        35000
#        55035
#        81522
#        105830
#        123050
#        145250
#        160032
#        193000
#
# Disc length: 2839 seconds
#
# Revision: 7
# Processed by: cddbd v1.5.2PL0 Copyright (c) Steve Scherf et al.
# Submitted via: ExactAudioCopyFreeDBPlugin 1.0
#
DISCID=6d0b1509
DTITLE=Mike Bloomfield - Live at the Old Waldorf '76 - '77
DYEAR=1998
DGENRE=Blues
TTITLE0=Blues Medley: Sweet Little Angel\\Jelly Jelly
TTITLE1=Feel So Bad
TTITLE2=Bad Luck Baby
TTITLE3=The Sky Is Cryin'
TTITLE4=Dancin' Fool
TTITLE5=Buried Alive in ihe Blues
TTITLE6=Farther Up the Road
TTITLE7=Your Friends
TTITLE8=Bye, Bye
EXTD=
EXTT0=
EXTT1=
EXTT2=
EXTT3=
EXTT4=
EXTT5=
EXTT6=
EXTT7=
EXTT8=
PLAYORDER=
